# xmcd CD database file
#
# Track frame offsets:
#	150
#	46972
#	55508
#	87313
#	121507
#	129709
#	180362
#	200777
#	215641
#	249473
#
# Disc length: 4032 seconds
#
# Revision: 0
# Processed by: cddbd v1.5.1PL2 Copyright (c) Steve Scherf et al.
# Submitted via: CDex 1.51
#
DISCID=870fbe0a
DTITLE=Adam Lane - Hollywood Wedding
DYEAR=1999
DGENRE=Jazz
TTITLE0=Monolith (the assassination of rabin)
TTITLE1=The Box
TTITLE2=Dedicated (a version for fred hopkins)
TTITLE3=Blues for Richard Davis
TTITLE4=The Government Has a Responsibility to Provide For Its People
TTITLE5=Fire Up the Pig
TTITLE6=After Party
TTITLE7=Cows
TTITLE8=Peace (for wadada smith)
TTITLE9=New Mars
EXTD=YEAR: 1999
EXTT0=
EXTT1=
EXTT2=
EXTT3=
EXTT4=
EXTT5=
EXTT6=
EXTT7=
EXTT8=
EXTT9=
PLAYORDER=
